<mxfile host="Electron" modified="2023-06-14T08:15:02.912Z" agent="Mozilla/5.0 (Windows NT 10.0; Win64; x64) AppleWebKit/537.36 (KHTML, like Gecko) draw.io/21.3.7 Chrome/112.0.5615.204 Electron/24.5.0 Safari/537.36" etag="gMRiFCnr6IZin4bdP4uz" version="21.3.7" type="device">
  <diagram id="C5RBs43oDa-KdzZeNtuy" name="Page-1">
    <mxGraphModel dx="1219" dy="713" grid="1" gridSize="10" guides="1" tooltips="1" connect="1" arrows="1" fold="1" page="1" pageScale="1" pageWidth="827" pageHeight="1169" math="0" shadow="0">
      <root>
        <mxCell id="WIyWlLk6GJQsqaUBKTNV-0" />
        <mxCell id="WIyWlLk6GJQsqaUBKTNV-1" parent="WIyWlLk6GJQsqaUBKTNV-0" />
        <mxCell id="JXdsYl6UzMUj7Tuk4QS0-0" value="&lt;p style=&quot;margin:0px;margin-top:4px;text-align:center;text-decoration:underline;&quot;&gt;&lt;b&gt;Payment&lt;/b&gt;&lt;/p&gt;&lt;hr&gt;&lt;p style=&quot;margin:0px;margin-left:8px;&quot;&gt;&lt;br&gt;&lt;/p&gt;" style="verticalAlign=top;align=left;overflow=fill;fontSize=12;fontFamily=Helvetica;html=1;whiteSpace=wrap;" parent="WIyWlLk6GJQsqaUBKTNV-1" vertex="1">
          <mxGeometry x="130" y="300" width="630" height="650" as="geometry" />
        </mxCell>
        <mxCell id="JXdsYl6UzMUj7Tuk4QS0-1" value="" style="ellipse;html=1;shape=startState;fillColor=#000000;strokeColor=#ff0000;" parent="WIyWlLk6GJQsqaUBKTNV-1" vertex="1">
          <mxGeometry x="160" y="365" width="30" height="30" as="geometry" />
        </mxCell>
        <mxCell id="JXdsYl6UzMUj7Tuk4QS0-2" value="" style="edgeStyle=orthogonalEdgeStyle;html=1;verticalAlign=bottom;endArrow=open;endSize=8;strokeColor=#ff0000;rounded=0;entryX=0;entryY=0.5;entryDx=0;entryDy=0;" parent="WIyWlLk6GJQsqaUBKTNV-1" source="JXdsYl6UzMUj7Tuk4QS0-1" target="JXdsYl6UzMUj7Tuk4QS0-3" edge="1">
          <mxGeometry relative="1" as="geometry">
            <mxPoint x="445" y="330" as="targetPoint" />
          </mxGeometry>
        </mxCell>
        <mxCell id="JXdsYl6UzMUj7Tuk4QS0-6" style="edgeStyle=orthogonalEdgeStyle;rounded=0;orthogonalLoop=1;jettySize=auto;html=1;exitX=1;exitY=0.5;exitDx=0;exitDy=0;entryX=0;entryY=0.5;entryDx=0;entryDy=0;" parent="WIyWlLk6GJQsqaUBKTNV-1" source="JXdsYl6UzMUj7Tuk4QS0-3" target="JXdsYl6UzMUj7Tuk4QS0-5" edge="1">
          <mxGeometry relative="1" as="geometry" />
        </mxCell>
        <mxCell id="JXdsYl6UzMUj7Tuk4QS0-3" value="Display order list" style="rounded=1;whiteSpace=wrap;html=1;arcSize=40;fontColor=#000000;fillColor=#ffffc0;strokeColor=#ff0000;" parent="WIyWlLk6GJQsqaUBKTNV-1" vertex="1">
          <mxGeometry x="240" y="360" width="120" height="40" as="geometry" />
        </mxCell>
        <mxCell id="JXdsYl6UzMUj7Tuk4QS0-11" style="edgeStyle=orthogonalEdgeStyle;rounded=0;orthogonalLoop=1;jettySize=auto;html=1;exitX=0.5;exitY=1;exitDx=0;exitDy=0;" parent="WIyWlLk6GJQsqaUBKTNV-1" source="JXdsYl6UzMUj7Tuk4QS0-5" target="JXdsYl6UzMUj7Tuk4QS0-7" edge="1">
          <mxGeometry relative="1" as="geometry" />
        </mxCell>
        <mxCell id="JXdsYl6UzMUj7Tuk4QS0-5" value="Input order id" style="rounded=1;whiteSpace=wrap;html=1;arcSize=40;fontColor=#000000;fillColor=#ffffc0;strokeColor=#ff0000;" parent="WIyWlLk6GJQsqaUBKTNV-1" vertex="1">
          <mxGeometry x="410" y="360" width="120" height="40" as="geometry" />
        </mxCell>
        <mxCell id="JXdsYl6UzMUj7Tuk4QS0-13" style="edgeStyle=orthogonalEdgeStyle;rounded=0;orthogonalLoop=1;jettySize=auto;html=1;exitX=1;exitY=0.5;exitDx=0;exitDy=0;entryX=0;entryY=0.5;entryDx=0;entryDy=0;" parent="WIyWlLk6GJQsqaUBKTNV-1" source="JXdsYl6UzMUj7Tuk4QS0-7" target="JXdsYl6UzMUj7Tuk4QS0-12" edge="1">
          <mxGeometry relative="1" as="geometry" />
        </mxCell>
        <mxCell id="JXdsYl6UzMUj7Tuk4QS0-39" value="[Not exists in DB]" style="edgeLabel;html=1;align=center;verticalAlign=middle;resizable=0;points=[];" parent="JXdsYl6UzMUj7Tuk4QS0-13" vertex="1" connectable="0">
          <mxGeometry x="-0.1927" y="-2" relative="1" as="geometry">
            <mxPoint x="2" y="-19" as="offset" />
          </mxGeometry>
        </mxCell>
        <mxCell id="JXdsYl6UzMUj7Tuk4QS0-15" style="edgeStyle=orthogonalEdgeStyle;rounded=0;orthogonalLoop=1;jettySize=auto;html=1;exitX=0.5;exitY=1;exitDx=0;exitDy=0;entryX=0.5;entryY=0;entryDx=0;entryDy=0;" parent="WIyWlLk6GJQsqaUBKTNV-1" source="JXdsYl6UzMUj7Tuk4QS0-7" target="JXdsYl6UzMUj7Tuk4QS0-17" edge="1">
          <mxGeometry relative="1" as="geometry">
            <mxPoint x="445" y="630" as="targetPoint" />
          </mxGeometry>
        </mxCell>
        <mxCell id="JXdsYl6UzMUj7Tuk4QS0-40" value="[Exists in DB]" style="edgeLabel;html=1;align=center;verticalAlign=middle;resizable=0;points=[];" parent="JXdsYl6UzMUj7Tuk4QS0-15" vertex="1" connectable="0">
          <mxGeometry x="-0.2693" y="-2" relative="1" as="geometry">
            <mxPoint x="42" y="2" as="offset" />
          </mxGeometry>
        </mxCell>
        <mxCell id="JXdsYl6UzMUj7Tuk4QS0-7" value="" style="rhombus;whiteSpace=wrap;html=1;fontColor=#000000;fillColor=#ffffc0;strokeColor=#ff0000;" parent="WIyWlLk6GJQsqaUBKTNV-1" vertex="1">
          <mxGeometry x="425" y="440" width="90" height="75" as="geometry" />
        </mxCell>
        <mxCell id="JXdsYl6UzMUj7Tuk4QS0-38" style="edgeStyle=orthogonalEdgeStyle;rounded=0;orthogonalLoop=1;jettySize=auto;html=1;exitX=0.5;exitY=0;exitDx=0;exitDy=0;entryX=1;entryY=0.5;entryDx=0;entryDy=0;" parent="WIyWlLk6GJQsqaUBKTNV-1" source="JXdsYl6UzMUj7Tuk4QS0-12" target="JXdsYl6UzMUj7Tuk4QS0-5" edge="1">
          <mxGeometry relative="1" as="geometry" />
        </mxCell>
        <mxCell id="JXdsYl6UzMUj7Tuk4QS0-12" value="Display&lt;br&gt;&quot;Wrong order number&quot;" style="rounded=1;whiteSpace=wrap;html=1;arcSize=40;fontColor=#000000;fillColor=#ffffc0;strokeColor=#ff0000;" parent="WIyWlLk6GJQsqaUBKTNV-1" vertex="1">
          <mxGeometry x="620" y="455.62" width="130" height="43.75" as="geometry" />
        </mxCell>
        <mxCell id="JXdsYl6UzMUj7Tuk4QS0-23" style="edgeStyle=orthogonalEdgeStyle;rounded=0;orthogonalLoop=1;jettySize=auto;html=1;exitX=0.5;exitY=1;exitDx=0;exitDy=0;entryX=0.5;entryY=0;entryDx=0;entryDy=0;" parent="WIyWlLk6GJQsqaUBKTNV-1" source="JXdsYl6UzMUj7Tuk4QS0-17" target="JXdsYl6UzMUj7Tuk4QS0-24" edge="1">
          <mxGeometry relative="1" as="geometry">
            <mxPoint x="470" y="620" as="targetPoint" />
          </mxGeometry>
        </mxCell>
        <mxCell id="JXdsYl6UzMUj7Tuk4QS0-17" value="Show order and the total to pay" style="rounded=1;whiteSpace=wrap;html=1;arcSize=40;fontColor=#000000;fillColor=#ffffc0;strokeColor=#ff0000;" parent="WIyWlLk6GJQsqaUBKTNV-1" vertex="1">
          <mxGeometry x="400" y="550" width="140" height="42.5" as="geometry" />
        </mxCell>
        <mxCell id="JXdsYl6UzMUj7Tuk4QS0-27" style="edgeStyle=orthogonalEdgeStyle;rounded=0;orthogonalLoop=1;jettySize=auto;html=1;exitX=0.5;exitY=1;exitDx=0;exitDy=0;" parent="WIyWlLk6GJQsqaUBKTNV-1" source="JXdsYl6UzMUj7Tuk4QS0-24" target="JXdsYl6UzMUj7Tuk4QS0-26" edge="1">
          <mxGeometry relative="1" as="geometry" />
        </mxCell>
        <mxCell id="JXdsYl6UzMUj7Tuk4QS0-24" value="Display&lt;br&gt;&quot;PAYMENT(press ENTER to continue) or Ctrl + C to cancel order&quot;" style="rounded=1;whiteSpace=wrap;html=1;arcSize=40;fontColor=#000000;fillColor=#ffffc0;strokeColor=#ff0000;" parent="WIyWlLk6GJQsqaUBKTNV-1" vertex="1">
          <mxGeometry x="370" y="630" width="200" height="80" as="geometry" />
        </mxCell>
        <mxCell id="JXdsYl6UzMUj7Tuk4QS0-30" style="edgeStyle=orthogonalEdgeStyle;rounded=0;orthogonalLoop=1;jettySize=auto;html=1;exitX=0;exitY=0.5;exitDx=0;exitDy=0;entryX=0.5;entryY=0;entryDx=0;entryDy=0;" parent="WIyWlLk6GJQsqaUBKTNV-1" source="JXdsYl6UzMUj7Tuk4QS0-26" target="JXdsYl6UzMUj7Tuk4QS0-35" edge="1">
          <mxGeometry relative="1" as="geometry">
            <mxPoint x="320.0000000000002" y="815" as="targetPoint" />
          </mxGeometry>
        </mxCell>
        <mxCell id="JXdsYl6UzMUj7Tuk4QS0-31" style="edgeStyle=orthogonalEdgeStyle;rounded=0;orthogonalLoop=1;jettySize=auto;html=1;exitX=1;exitY=0.5;exitDx=0;exitDy=0;entryX=0.5;entryY=0;entryDx=0;entryDy=0;" parent="WIyWlLk6GJQsqaUBKTNV-1" source="JXdsYl6UzMUj7Tuk4QS0-26" target="JXdsYl6UzMUj7Tuk4QS0-28" edge="1">
          <mxGeometry relative="1" as="geometry" />
        </mxCell>
        <mxCell id="JXdsYl6UzMUj7Tuk4QS0-32" value="[Ctrl + C]" style="edgeLabel;html=1;align=center;verticalAlign=middle;resizable=0;points=[];" parent="JXdsYl6UzMUj7Tuk4QS0-31" vertex="1" connectable="0">
          <mxGeometry x="-0.3469" y="1" relative="1" as="geometry">
            <mxPoint x="15" y="-16" as="offset" />
          </mxGeometry>
        </mxCell>
        <mxCell id="JXdsYl6UzMUj7Tuk4QS0-26" value="" style="rhombus;whiteSpace=wrap;html=1;fontColor=#000000;fillColor=#ffffc0;strokeColor=#ff0000;" parent="WIyWlLk6GJQsqaUBKTNV-1" vertex="1">
          <mxGeometry x="425" y="740" width="90" height="75" as="geometry" />
        </mxCell>
        <mxCell id="JXdsYl6UzMUj7Tuk4QS0-44" style="edgeStyle=orthogonalEdgeStyle;rounded=0;orthogonalLoop=1;jettySize=auto;html=1;exitX=0.5;exitY=1;exitDx=0;exitDy=0;entryX=1;entryY=0.5;entryDx=0;entryDy=0;" parent="WIyWlLk6GJQsqaUBKTNV-1" source="JXdsYl6UzMUj7Tuk4QS0-28" target="JXdsYl6UzMUj7Tuk4QS0-43" edge="1">
          <mxGeometry relative="1" as="geometry" />
        </mxCell>
        <mxCell id="JXdsYl6UzMUj7Tuk4QS0-28" value="Cancel order" style="rounded=1;whiteSpace=wrap;html=1;arcSize=40;fontColor=#000000;fillColor=#ffffc0;strokeColor=#ff0000;" parent="WIyWlLk6GJQsqaUBKTNV-1" vertex="1">
          <mxGeometry x="560" y="815" width="120" height="40" as="geometry" />
        </mxCell>
        <mxCell id="JXdsYl6UzMUj7Tuk4QS0-45" style="edgeStyle=orthogonalEdgeStyle;rounded=0;orthogonalLoop=1;jettySize=auto;html=1;exitX=0.5;exitY=1;exitDx=0;exitDy=0;entryX=0;entryY=0.5;entryDx=0;entryDy=0;" parent="WIyWlLk6GJQsqaUBKTNV-1" source="JXdsYl6UzMUj7Tuk4QS0-35" target="JXdsYl6UzMUj7Tuk4QS0-43" edge="1">
          <mxGeometry relative="1" as="geometry" />
        </mxCell>
        <mxCell id="JXdsYl6UzMUj7Tuk4QS0-35" value="Print invoice" style="rounded=1;whiteSpace=wrap;html=1;arcSize=40;fontColor=#000000;fillColor=#ffffc0;strokeColor=#ff0000;" parent="WIyWlLk6GJQsqaUBKTNV-1" vertex="1">
          <mxGeometry x="260" y="815" width="120" height="40" as="geometry" />
        </mxCell>
        <mxCell id="JXdsYl6UzMUj7Tuk4QS0-37" value="[Input money]" style="edgeLabel;html=1;align=center;verticalAlign=middle;resizable=0;points=[];" parent="WIyWlLk6GJQsqaUBKTNV-1" vertex="1" connectable="0">
          <mxGeometry x="370.00345397628416" y="759.998673633598" as="geometry" />
        </mxCell>
        <mxCell id="JXdsYl6UzMUj7Tuk4QS0-43" value="" style="ellipse;html=1;shape=endState;fillColor=#000000;strokeColor=#ff0000;" parent="WIyWlLk6GJQsqaUBKTNV-1" vertex="1">
          <mxGeometry x="455" y="900" width="30" height="30" as="geometry" />
        </mxCell>
      </root>
    </mxGraphModel>
  </diagram>
</mxfile>
